<?xml version="1.0" standalone="no"?>
<!DOCTYPE svg PUBLIC "-//W3C//DTD SVG 20010904//EN"
 "http://www.w3.org/TR/2001/REC-SVG-20010904/DTD/svg10.dtd">
<svg version="1.0" xmlns="http://www.w3.org/2000/svg"
 width="500.000000pt" height="500.000000pt" viewBox="0 0 500.000000 500.000000"
 preserveAspectRatio="xMidYMid meet">

<g transform="translate(0.000000,500.000000) scale(0.100000,-0.100000)"
fill="#000000" stroke="none">
<path d="M2339 4331 c-143 -15 -274 -42 -379 -77 -58 -19 -119 -38 -135 -43
-17 -4 -63 -24 -103 -44 -40 -21 -77 -37 -82 -37 -10 0 -71 -39 -110 -70 -14
-11 -33 -20 -42 -20 -9 0 -20 -5 -23 -10 -3 -6 -39 -34 -78 -64 -111 -82 -198
-162 -297 -271 -41 -45 -130 -163 -130 -173 0 -4 -13 -23 -28 -42 -28 -35
-142 -243 -142 -260 0 -5 -13 -37 -29 -72 -38 -85 -42 -97 -52 -143 -4 -22
-17 -74 -29 -115 -35 -127 -50 -259 -50 -449 0 -194 10 -275 61 -475 38 -149
135 -392 166 -418 7 -6 13 -16 13 -24 0 -21 168 -263 223 -321 9 -10 48 -51
86 -90 38 -40 74 -73 80 -73 6 0 16 -9 23 -20 14 -23 102 -89 217 -165 91 -60
226 -129 306 -157 33 -11 66 -25 73 -31 7 -6 33 -11 58 -11 40 -1 50 3 76 33
l31 34 -8 181 c-4 100 -8 183 -10 184 -2 2 -35 -1 -74 -7 -38 -6 -93 -11 -121
-11 -61 0 -187 27 -215 46 -11 8 -27 14 -36 14 -9 0 -27 9 -40 21 -13 12 -35
31 -49 43 -37 31 -83 102 -115 179 -16 38 -41 83 -57 100 -15 18 -28 37 -28
42 0 6 -39 39 -86 74 -73 55 -85 67 -82 90 3 25 6 26 75 29 58 2 80 -1 115
-19 70 -35 127 -89 185 -170 66 -95 113 -138 189 -174 80 -38 188 -41 285 -6
63 23 67 26 72 60 6 46 61 162 95 204 10 12 7 15 -19 21 -17 3 -47 6 -66 6
-56 0 -232 49 -258 72 -5 4 -18 8 -28 8 -32 0 -168 91 -232 155 -71 71 -149
199 -172 281 -8 33 -22 81 -29 108 -46 167 -44 381 6 528 38 110 53 141 91
188 16 19 29 40 29 47 0 7 8 16 17 21 15 9 15 14 -1 76 -26 96 -19 285 15 376
28 76 39 80 154 60 75 -14 249 -91 323 -144 52 -36 80 -37 245 -4 143 29 423
31 557 4 172 -34 201 -36 237 -19 18 8 33 19 33 23 0 15 228 119 293 134 82
19 141 20 154 4 5 -7 18 -33 28 -58 26 -65 34 -320 12 -385 -18 -50 -18 -50
54 -145 34 -44 84 -165 104 -250 32 -139 14 -390 -40 -538 -14 -38 -25 -76
-25 -83 0 -26 -102 -174 -159 -229 -57 -56 -197 -150 -223 -150 -8 0 -28 -6
-44 -14 -50 -25 -204 -66 -253 -67 -25 -1 -56 -4 -68 -7 -21 -7 -21 -7 9 -52
17 -25 43 -70 57 -100 l26 -55 0 -352 0 -353 28 -27 c22 -23 36 -28 72 -27 24
0 50 5 57 11 7 6 42 20 77 32 36 12 91 38 123 57 33 19 64 34 70 34 13 0 228
140 228 149 0 4 16 15 36 26 19 10 44 32 55 47 11 15 25 28 31 28 9 0 71 61
158 156 58 63 176 230 232 329 79 138 140 295 182 465 53 217 59 268 53 509
-5 219 -8 244 -62 456 -24 96 -112 319 -150 380 -17 28 -37 63 -44 79 -7 17
-25 46 -42 67 -16 20 -29 40 -29 43 0 27 -223 277 -321 362 -64 55 -197 151
-226 163 -18 7 -33 17 -33 21 0 9 -257 136 -290 143 -14 3 -63 20 -110 37 -47
18 -112 36 -145 41 -33 4 -96 15 -140 23 -98 19 -333 28 -436 17z"/>
</g>
</svg>
