<svg id="Layer_1" data-name="Layer 1" xmlns="http://www.w3.org/2000/svg" viewBox="0 0 589 400.48"><defs><style>.cls-1{fill:#600;}.cls-2{fill:#d6bf86;}</style></defs><path class="cls-1" d="M31.63,210.75v23.89a3.59,3.59,0,0,0,.76,2.45A5.14,5.14,0,0,0,35,238.44v1.68H12.54v-1.68a5.32,5.32,0,0,0,2.63-1.38,3.52,3.52,0,0,0,.74-2.42v-61a3.62,3.62,0,0,0-.74-2.48,5.4,5.4,0,0,0-2.63-1.37v-1.69h45a70.87,70.87,0,0,1,13.05,1A23.13,23.13,0,0,1,79,172.41a16.74,16.74,0,0,1,6.23,7.44,24.26,24.26,0,0,1,1.95,9.7q0,17.61-19.57,20.62l14,19.88a44.62,44.62,0,0,0,5.4,6.72,6.83,6.83,0,0,0,4.2,1.67v1.68h-26v-1.68c1.79-.29,2.68-.92,2.68-1.9,0-.64-.82-2.16-2.47-4.59l-14.58-21.2Zm0-11.87H55.88a62.46,62.46,0,0,0,7.6-.31,12,12,0,0,0,4.06-1.32q4-2.16,4-7.81t-4-7.8a11.4,11.4,0,0,0-4-1.34,64.79,64.79,0,0,0-7.62-.29H31.63Z" transform="translate(-5.76 -12.37)"/><path class="cls-1" d="M116.53,215v14.4H154a3.8,3.8,0,0,0,2.51-.73,5.26,5.26,0,0,0,1.4-2.65h1.47V243.5h-1.47a5,5,0,0,0-1.38-2.61,3.77,3.77,0,0,0-2.53-.77H99v-1.47a5,5,0,0,0,2.61-1.37,3.82,3.82,0,0,0,.77-2.54v-48.3a3.67,3.67,0,0,0-.74-2.48A5.79,5.79,0,0,0,99,182.54v-1.48h53.37a3.8,3.8,0,0,0,2.55-.74,5.24,5.24,0,0,0,1.4-2.63h1.43v17.45h-1.43a5.23,5.23,0,0,0-1.4-2.65,3.92,3.92,0,0,0-2.55-.72H116.53v13h22.25a3.8,3.8,0,0,0,2.51-.74,5.56,5.56,0,0,0,1.45-2.64h1.42v17h-1.42a5.38,5.38,0,0,0-1.4-2.63,3.82,3.82,0,0,0-2.56-.75Z" transform="translate(-5.76 -12.37)"/><path class="cls-1" d="M171.69,234.74v-48.3A3.67,3.67,0,0,0,171,184a5.74,5.74,0,0,0-2.64-1.42v-1.48H203q10.81,0,17,2.69A23.58,23.58,0,0,1,232.6,196.3a35.3,35.3,0,0,1,2.69,14.29q0,15.14-9,22.94a25,25,0,0,1-9.57,5A51.41,51.41,0,0,1,203,240.12H168.31v-1.47a5,5,0,0,0,2.61-1.37A3.82,3.82,0,0,0,171.69,234.74Zm14.13-5.32H200.9q10.4,0,15.09-4.75,4.9-4.95,4.9-14.08T216,196.51a14.38,14.38,0,0,0-6-3.61,30.46,30.46,0,0,0-9.07-1.13H185.82Z" transform="translate(-5.76 -12.37)"/><path class="cls-1" d="M301.1,186.39,294,200.15l-1.27-.69a3.5,3.5,0,0,0-1.1-2.74,23.22,23.22,0,0,0-8.86-4.43,41.44,41.44,0,0,0-11.87-1.74,26.69,26.69,0,0,0-9.07,1.43c-3.79,1.37-5.69,3.35-5.69,6a3.76,3.76,0,0,0,2.74,3.66q2.75,1.08,10.6,1.71l8.33.64q10.92.84,16.61,4.22a16.16,16.16,0,0,1,7.81,14q0,9-8.12,14.24-7.75,5-21,5a61.82,61.82,0,0,1-25.79-5.64,3.64,3.64,0,0,0-1.42-.37,2.45,2.45,0,0,0-1.95,1.26l-1.32-.52,6.06-14.45,1.32.52v.43a3,3,0,0,0,1.05,2.32q2.64,2.31,9.13,4A50.05,50.05,0,0,0,273,230.68a31.71,31.71,0,0,0,10-1.47q5.49-1.8,5.49-5.8c0-2.15-1.27-3.64-3.8-4.49a46.55,46.55,0,0,0-9.12-1.42l-8.28-.69a69.58,69.58,0,0,1-10.23-1.37A20.59,20.59,0,0,1,250.9,213a14.63,14.63,0,0,1-5.28-5.74,17,17,0,0,1-1.9-8,16.37,16.37,0,0,1,8.34-14.81q7.59-4.65,18.77-4.65a45.3,45.3,0,0,1,11.31,1.35,74.76,74.76,0,0,1,12.53,4.72,8.83,8.83,0,0,0,3,1,3.76,3.76,0,0,0,2.16-1.16Z" transform="translate(-5.76 -12.37)"/><path class="cls-1" d="M344.34,191.77V234.7a3.77,3.77,0,0,0,.74,2.5,5.56,5.56,0,0,0,2.64,1.45v1.47H326.83v-1.47a5,5,0,0,0,2.61-1.37,3.82,3.82,0,0,0,.77-2.54v-43h-17.4a3.82,3.82,0,0,0-2.56.75,5.29,5.29,0,0,0-1.4,2.62h-1.42V177.69h1.42a5.14,5.14,0,0,0,1.35,2.61,3.82,3.82,0,0,0,2.56.76h49a3.82,3.82,0,0,0,2.56-.74,5.24,5.24,0,0,0,1.4-2.63h1.42v17.45H365.7a5.29,5.29,0,0,0-1.4-2.62,3.82,3.82,0,0,0-2.56-.75Z" transform="translate(-5.76 -12.37)"/><path class="cls-1" d="M406.28,179.79q14.09,0,23.48,7.18Q441,195.61,441,211.07q0,14.51-11.24,23.15-9.28,7.17-23.38,7.17T383,234.22q-11.29-8.66-11.29-23.63,0-15.14,11.29-23.62Q392.35,180,406.28,179.79Zm.05,11.18q-9.13,0-14.89,5.86a20.36,20.36,0,0,0,0,27.47q5.76,5.91,14.94,5.91t14.9-5.91a18.45,18.45,0,0,0,5.33-13.45q0-8.7-5.33-14Q415.46,191.08,406.33,191Z" transform="translate(-5.76 -12.37)"/><path class="cls-1" d="M466.26,201.2v33.5a3.79,3.79,0,0,0,.77,2.53,5.32,5.32,0,0,0,2.61,1.42v1.47H450v-1.47a5,5,0,0,0,2.61-1.37,3.82,3.82,0,0,0,.77-2.54v-48.3a3.67,3.67,0,0,0-.74-2.48,5.74,5.74,0,0,0-2.64-1.42v-1.48h22.69v1.48c-1.55.39-2.33,1.07-2.33,2.05a4.67,4.67,0,0,0,1.69,3L503.76,219V186.44a3.81,3.81,0,0,0-.74-2.51,5.23,5.23,0,0,0-2.64-1.39v-1.48H520v1.48a5.28,5.28,0,0,0-2.64,1.39,3.81,3.81,0,0,0-.74,2.51V234.7a3.77,3.77,0,0,0,.74,2.5,5.62,5.62,0,0,0,2.64,1.45v1.47H498.85v-1.47c1.54-.32,2.32-1,2.32-1.94a2.39,2.39,0,0,0-.64-1.51c-.42-.53-1.39-1.56-2.9-3.09Z" transform="translate(-5.76 -12.37)"/><path class="cls-1" d="M547.84,215v14.4h37.5a3.77,3.77,0,0,0,2.5-.73,5.18,5.18,0,0,0,1.4-2.65h1.48V243.5h-1.48a5,5,0,0,0-1.37-2.61,3.79,3.79,0,0,0-2.53-.77h-55v-1.47a5,5,0,0,0,2.61-1.37,3.81,3.81,0,0,0,.76-2.54v-48.3A3.67,3.67,0,0,0,533,184a5.75,5.75,0,0,0-2.63-1.42v-1.48H583.7a3.82,3.82,0,0,0,2.56-.74,5.24,5.24,0,0,0,1.4-2.63h1.42v17.45h-1.42a5.23,5.23,0,0,0-1.4-2.65,3.93,3.93,0,0,0-2.56-.72H547.84v13H570.1a3.77,3.77,0,0,0,2.5-.74,5.48,5.48,0,0,0,1.45-2.64h1.43v17h-1.43a5.38,5.38,0,0,0-1.4-2.63,3.8,3.8,0,0,0-2.55-.75Z" transform="translate(-5.76 -12.37)"/><rect class="cls-2" y="237.39" width="589" height="7.22"/><path class="cls-1" d="M152.93,296.45l-2.52,4.62-.45-.22a1.4,1.4,0,0,0,0-.74,4.44,4.44,0,0,0-1.21-.94,19.46,19.46,0,0,1-3.67-2.9,15.2,15.2,0,0,1-2.42-3.55,12.61,12.61,0,0,1-1.51-8,9.64,9.64,0,0,1,1.7-3.95,10.15,10.15,0,0,1,3.65-3.08,9.85,9.85,0,0,1,6.36-1q5.13.91,8.08,6.72a15.38,15.38,0,0,1,1.46,4.06,19,19,0,0,1,.19,4.68,4.38,4.38,0,0,0,.05,1.53,1.35,1.35,0,0,0,.57.46l-.09.51-5.19-.7.07-.47.25-.09.21-.08q.76-.39.66-3a10.85,10.85,0,0,0-1.14-4.51,8.11,8.11,0,0,0-3.89-3.93,6.16,6.16,0,0,0-8.67,4.41,8.15,8.15,0,0,0,.91,5.46,10.87,10.87,0,0,0,3.36,3.86c1.17.85,2,1.17,2.42.94l.41-.27Z" transform="translate(-5.76 -12.37)"/><path class="cls-1" d="M173.42,303.76a12.53,12.53,0,0,1,2.65,7.74,9.58,9.58,0,0,1-4.31,7.75,9.24,9.24,0,0,1-8.44,1.49,13.91,13.91,0,0,1-9.15-12.62,9.41,9.41,0,0,1,4.17-7.67,9.27,9.27,0,0,1,8.59-1.57A12.78,12.78,0,0,1,173.42,303.76Zm-3,2.2a6.67,6.67,0,0,0-4.49-2.88,6.78,6.78,0,0,0-7.42,5.38,7.28,7.28,0,0,0,5.83,8.05,6.15,6.15,0,0,0,4.68-1.19,6.32,6.32,0,0,0,2.74-4.18A6.9,6.9,0,0,0,170.41,306Z" transform="translate(-5.76 -12.37)"/><path class="cls-1" d="M180.48,323.74l-7.87,7.92a1.3,1.3,0,0,0-.41.78,1.82,1.82,0,0,0,.28.95l-.34.35-4.64-4.61.35-.35a1.68,1.68,0,0,0,.94.29,1.22,1.22,0,0,0,.77-.42l11.35-11.42a1.18,1.18,0,0,0,.41-.76,1.8,1.8,0,0,0-.29-1l.35-.35,5.36,5.33-.34.35c-.46-.28-.81-.3-1-.06a1.53,1.53,0,0,0-.29,1.09l.1,14.88,7.65-7.69a1.3,1.3,0,0,0,.41-.77,1.8,1.8,0,0,0-.29-.95l.34-.35,4.64,4.61-.34.35a1.83,1.83,0,0,0-1-.29,1.25,1.25,0,0,0-.76.42L184.52,343.5a1.21,1.21,0,0,0-.41.76,1.78,1.78,0,0,0,.28,1l-.35.35-5-5,.35-.35c.44.29.77.32,1,.09a.75.75,0,0,0,.21-.51c0-.22,0-.69,0-1.41Z" transform="translate(-5.76 -12.37)"/><path class="cls-1" d="M207.27,342.93l-8.47,11.53a1.23,1.23,0,0,0-.3.82,1.94,1.94,0,0,0,.42.91l-.29.39L193,352.46l.29-.39a1.72,1.72,0,0,0,1,.14,1.24,1.24,0,0,0,.71-.53l8.48-11.54-4.67-3.44a1.31,1.31,0,0,0-.84-.3,1.75,1.75,0,0,0-.89.43l-.38-.28,3.44-4.69.38.28a1.65,1.65,0,0,0-.15,1,1.21,1.21,0,0,0,.54.71l13.15,9.66a1.26,1.26,0,0,0,.84.31,1.75,1.75,0,0,0,.89-.43l.39.28-3.45,4.69-.38-.28a1.76,1.76,0,0,0,.14-1,1.29,1.29,0,0,0-.54-.71Z" transform="translate(-5.76 -12.37)"/><path class="cls-1" d="M217,358.35l-2.28,4.22,11,5.94a1.28,1.28,0,0,0,.85.18,1.72,1.72,0,0,0,.83-.55l.43.23L225,373.49l-.43-.23a1.74,1.74,0,0,0,0-1,1.28,1.28,0,0,0-.62-.62l-16.14-8.71.24-.43a1.71,1.71,0,0,0,1,0,1.32,1.32,0,0,0,.62-.62l7.65-14.17a1.22,1.22,0,0,0,.18-.85,1.94,1.94,0,0,0-.55-.83l.24-.43,15.65,8.44a1.24,1.24,0,0,0,.87.19,1.7,1.7,0,0,0,.82-.55l.42.23-2.76,5.12-.42-.23a1.77,1.77,0,0,0,0-1,1.27,1.27,0,0,0-.64-.61l-10.51-5.68-2.06,3.8,6.53,3.53a1.28,1.28,0,0,0,.85.18,1.9,1.9,0,0,0,.84-.55l.42.23-2.7,5-.41-.22a1.82,1.82,0,0,0,0-1,1.27,1.27,0,0,0-.63-.63Z" transform="translate(-5.76 -12.37)"/><path class="cls-1" d="M240,364.41,236.32,375a1.21,1.21,0,0,0,0,.87,1.7,1.7,0,0,0,.66.74l-.16.47-6.17-2.18.16-.46a1.64,1.64,0,0,0,1-.14,1.26,1.26,0,0,0,.53-.71l5.34-15.19a1.18,1.18,0,0,0,0-.86,1.84,1.84,0,0,0-.67-.74l.17-.47,7.13,2.51-.17.47c-.52-.05-.84.08-1,.39a1.49,1.49,0,0,0,.2,1.11l6.49,13.39,3.6-10.23a1.26,1.26,0,0,0,0-.87,1.76,1.76,0,0,0-.67-.73l.16-.46,6.17,2.17-.17.46a1.73,1.73,0,0,0-1,.15,1.24,1.24,0,0,0-.51.71l-5.34,15.17a1.26,1.26,0,0,0,0,.87,1.88,1.88,0,0,0,.66.74l-.16.47L246,380.26l.16-.47c.53.08.84,0,.95-.35a.88.88,0,0,0,0-.55q-.12-.31-.57-1.29Z" transform="translate(-5.76 -12.37)"/><path class="cls-1" d="M272.48,370.21l-2.67,14.05a1.22,1.22,0,0,0,.09.87,1.85,1.85,0,0,0,.77.64l-.09.48L263.74,385l.09-.49a1.61,1.61,0,0,0,.94-.29,1.22,1.22,0,0,0,.41-.78l2.67-14.07-5.7-1.08a1.31,1.31,0,0,0-.88.08,1.72,1.72,0,0,0-.62.78l-.47-.09,1.08-5.72.47.09a1.75,1.75,0,0,0,.28.94,1.27,1.27,0,0,0,.79.41l16,3a1.34,1.34,0,0,0,.89-.08,1.94,1.94,0,0,0,.62-.78l.46.09-1.08,5.71-.47-.09a1.71,1.71,0,0,0-.29-.94,1.27,1.27,0,0,0-.79-.4Z" transform="translate(-5.76 -12.37)"/><path class="cls-1" d="M310.4,370.63l-2.3,4.63-.43-.22a1.15,1.15,0,0,0-.38-.91,7.73,7.73,0,0,0-3-1.43,13.73,13.73,0,0,0-4-.52,9,9,0,0,0-3,.53q-1.89.72-1.86,2a1.25,1.25,0,0,0,.93,1.21,14.76,14.76,0,0,0,3.54.52l2.78.16a13.06,13.06,0,0,1,5.56,1.32,5.38,5.38,0,0,1,2.68,4.61,5.39,5.39,0,0,1-2.63,4.79,12.82,12.82,0,0,1-7,1.79,20.77,20.77,0,0,1-8.63-1.75,1.17,1.17,0,0,0-.47-.11.8.8,0,0,0-.64.43l-.45-.17,1.95-4.85.44.17V383a1,1,0,0,0,.36.77A7.64,7.64,0,0,0,297,385a16.64,16.64,0,0,0,4.28.51,10.37,10.37,0,0,0,3.33-.55c1.21-.42,1.81-1.07,1.79-2a1.55,1.55,0,0,0-1.28-1.48,16.72,16.72,0,0,0-3.05-.42l-2.77-.18a23.43,23.43,0,0,1-3.41-.41,6.61,6.61,0,0,1-2.07-.79,4.83,4.83,0,0,1-1.79-1.88,5.7,5.7,0,0,1-.68-2.65,5.46,5.46,0,0,1,2.7-5,11.78,11.78,0,0,1,6.23-1.65,15.24,15.24,0,0,1,3.78.39,25.34,25.34,0,0,1,4.2,1.5,2.91,2.91,0,0,0,1,.32,1.26,1.26,0,0,0,.71-.4Z" transform="translate(-5.76 -12.37)"/><path class="cls-1" d="M324.15,366.78a12.54,12.54,0,0,1,8.1,1.18,9.56,9.56,0,0,1,4.92,7.37,9.24,9.24,0,0,1-2.54,8.2,13.9,13.9,0,0,1-15.4,2.36,9.38,9.38,0,0,1-4.91-7.22,9.27,9.27,0,0,1,2.52-8.35A12.83,12.83,0,0,1,324.15,366.78Zm.58,3.68a6.68,6.68,0,0,0-4.61,2.68,6.8,6.8,0,0,0,1.39,9.06,7.26,7.26,0,0,0,9.83-1.51,6.14,6.14,0,0,0,1.08-4.7,6.35,6.35,0,0,0-2.47-4.35A6.91,6.91,0,0,0,324.73,370.46Z" transform="translate(-5.76 -12.37)"/><path class="cls-1" d="M348.23,378.42l10.54-3.22a1.26,1.26,0,0,0,.74-.48,1.83,1.83,0,0,0,.19-1l.46-.14,1.7,5.56-.46.14a1.71,1.71,0,0,0-.7-.7,1.29,1.29,0,0,0-.89,0l-16.12,4.93-.14-.47a1.71,1.71,0,0,0,.7-.69,1.29,1.29,0,0,0,0-.89l-4.7-15.39a1.24,1.24,0,0,0-.48-.72,1.89,1.89,0,0,0-1-.2l-.14-.47,6.66-2,.14.47a1.71,1.71,0,0,0-.7.7,1.29,1.29,0,0,0,0,.87Z" transform="translate(-5.76 -12.37)"/><path class="cls-1" d="M376.67,351.59l4.44,9.44c1,2.15,1.32,3.93.95,5.34q-.93,3.36-6.6,6a15.25,15.25,0,0,1-6.69,1.72,5,5,0,0,1-3.44-1.31,10.75,10.75,0,0,1-2.25-3.31l-4.44-9.44a1.18,1.18,0,0,0-.57-.64,1.93,1.93,0,0,0-1-.06l-.2-.44,6.29-3,.22.44a1.82,1.82,0,0,0-.61.8,1.27,1.27,0,0,0,.14.86l4,8.57a8.38,8.38,0,0,0,1.34,2.17,3,3,0,0,0,1.52.88,8.18,8.18,0,0,0,7.55-3.55,3,3,0,0,0,.27-1.72,8.73,8.73,0,0,0-.82-2.41l-4-8.58a1.24,1.24,0,0,0-.56-.64,1.86,1.86,0,0,0-1-.06l-.21-.44,5.94-2.79.21.45a1.72,1.72,0,0,0-.6.79A1.25,1.25,0,0,0,376.67,351.59Z" transform="translate(-5.76 -12.37)"/><path class="cls-1" d="M390.67,344.73l7.9,11.93a1.25,1.25,0,0,0,.67.56,1.87,1.87,0,0,0,1-.08l.28.41-5.81,3.84-.27-.41a1.69,1.69,0,0,0,.47-.86,1.24,1.24,0,0,0-.25-.85l-7.91-11.94-4.83,3.2a1.26,1.26,0,0,0-.58.68,1.91,1.91,0,0,0,.1,1l-.4.26-3.21-4.85.39-.27a1.68,1.68,0,0,0,.86.48,1.22,1.22,0,0,0,.85-.26l13.62-9a1.28,1.28,0,0,0,.57-.68,1.8,1.8,0,0,0-.09-1l.39-.26,3.21,4.85-.39.26a1.88,1.88,0,0,0-.87-.47,1.28,1.28,0,0,0-.85.27Z" transform="translate(-5.76 -12.37)"/><path class="cls-1" d="M402.23,333.73l10.16,12.47a1.23,1.23,0,0,0,.72.49,1.79,1.79,0,0,0,1-.18l.31.38-5.4,4.4-.31-.38a1.71,1.71,0,0,0,.39-.9,1.29,1.29,0,0,0-.34-.82l-10.17-12.48a1.24,1.24,0,0,0-.71-.49,1.88,1.88,0,0,0-1,.19l-.31-.38,5.39-4.4.32.38a1.69,1.69,0,0,0-.39.92A1.21,1.21,0,0,0,402.23,333.73Z" transform="translate(-5.76 -12.37)"/><path class="cls-1" d="M411.92,321.73a12.61,12.61,0,0,1,7.19-3.91,9.55,9.55,0,0,1,8.36,3,9.22,9.22,0,0,1,2.88,8.07A13.9,13.9,0,0,1,419.44,340a10.12,10.12,0,0,1-11.24-11A12.83,12.83,0,0,1,411.92,321.73Zm2.68,2.6a6.65,6.65,0,0,0-2.09,4.91,6.8,6.8,0,0,0,6.54,6.42,7.27,7.27,0,0,0,7-7.1,6.15,6.15,0,0,0-1.95-4.41,6.33,6.33,0,0,0-4.58-2A6.92,6.92,0,0,0,414.6,324.33Z" transform="translate(-5.76 -12.37)"/><path class="cls-1" d="M430.41,311.47l9.12,6.44a1.3,1.3,0,0,0,.84.28,1.71,1.71,0,0,0,.89-.44l.4.29-3.77,5.34-.4-.29a1.6,1.6,0,0,0,.12-1,1.24,1.24,0,0,0-.54-.7l-13.15-9.28a1.27,1.27,0,0,0-.82-.28,2,2,0,0,0-.89.45l-.41-.29,4.37-6.17.4.28c-.19.49-.16.84.11,1a1.56,1.56,0,0,0,1.13.11l14.65-2.59-8.86-6.26a1.27,1.27,0,0,0-.82-.28,1.86,1.86,0,0,0-.89.45l-.4-.28,3.77-5.34.4.28a1.67,1.67,0,0,0-.12,1,1.27,1.27,0,0,0,.53.68l13.14,9.28a1.29,1.29,0,0,0,.83.28,1.85,1.85,0,0,0,.9-.44l.4.28-4.06,5.76-.41-.28c.22-.48.19-.82-.08-1a.79.79,0,0,0-.53-.11c-.22,0-.69.08-1.4.19Z" transform="translate(-5.76 -12.37)"/><path class="cls-1" d="M446.69,274.11l3.05,4.16-.39.28a1.2,1.2,0,0,0-1-.08,7.68,7.68,0,0,0-2.63,2,13.6,13.6,0,0,0-2.28,3.28,8.89,8.89,0,0,0-.93,2.92c-.15,1.34.16,2.2.94,2.59A1.26,1.26,0,0,0,445,289a14.33,14.33,0,0,0,2.08-2.91l1.43-2.39a13,13,0,0,1,3.73-4.33,5.36,5.36,0,0,1,5.32-.26,5.4,5.4,0,0,1,3.05,4.54,12.78,12.78,0,0,1-1.62,7,20.74,20.74,0,0,1-5.52,6.86,1.29,1.29,0,0,0-.32.37.85.85,0,0,0,.09.77l-.35.31L449.44,295l.35-.32.12.06a1,1,0,0,0,.85,0,7.57,7.57,0,0,0,2.56-2.12,16.9,16.9,0,0,0,2.42-3.57,10.43,10.43,0,0,0,1-3.21c.19-1.27-.12-2.1-.91-2.5a1.56,1.56,0,0,0-1.91.47,15.64,15.64,0,0,0-1.77,2.51l-1.44,2.37a23.71,23.71,0,0,1-1.93,2.85,7.27,7.27,0,0,1-1.65,1.48,5,5,0,0,1-2.5.72,5.73,5.73,0,0,1-2.66-.62,5.48,5.48,0,0,1-3.19-4.69,11.8,11.8,0,0,1,1.41-6.29,15.46,15.46,0,0,1,2.08-3.18,23.93,23.93,0,0,1,3.27-3,2.86,2.86,0,0,0,.74-.75,1.27,1.27,0,0,0,0-.82Z" transform="translate(-5.76 -12.37)"/><path class="cls-1" d="M181.43,92.65l6.16,14.41a4.68,4.68,0,0,0,.63,1.34c.4.41,1,.37,1.82-.11l.42.42-5.77,5.72-.42-.42a1.26,1.26,0,0,0,0-1.76,7.55,7.55,0,0,0-1.53-.81l-18.22-8.12a7,7,0,0,0-2-.65,2.2,2.2,0,0,0-1.36.43l-.42-.42L167,96.51l.42.42q-.65,1-.06,1.59a4,4,0,0,0,1.07.66l12.93,6L175.7,91.81a4.41,4.41,0,0,0-.55-1.06c-.4-.4-1-.37-1.65.1l-.42-.42L179.59,84l.42.42c-.44.75-.46,1.33,0,1.74a3.69,3.69,0,0,0,1,.56l13,5.86-5.7-12.82a4.43,4.43,0,0,0-.76-1.31c-.38-.39-.94-.33-1.69.17l-.42-.41,6.16-6.11.41.42a2.59,2.59,0,0,0-.43,1.37,7.44,7.44,0,0,0,.65,2l8,18.3a6.73,6.73,0,0,0,.88,1.62c.43.43,1,.39,1.73-.12l.42.42-5.85,5.79-.41-.42c.52-.71.53-1.3,0-1.79a6.17,6.17,0,0,0-1.58-.78Z" transform="translate(-5.76 -12.37)"/><path class="cls-1" d="M211.23,77l3.6,5.9,13.84-8.46a1.19,1.19,0,0,0,.59-.66,1.84,1.84,0,0,0-.07-1l.51-.31L233.1,78l-.51.31a1.78,1.78,0,0,0-.89-.54,1.24,1.24,0,0,0-.86.22L211.29,89.88l-.31-.51a1.78,1.78,0,0,0,.54-.89,1.25,1.25,0,0,0-.23-.87L200.17,69.4a1.32,1.32,0,0,0-.67-.61,2,2,0,0,0-1,.08l-.31-.51,19.17-11.71a1.22,1.22,0,0,0,.59-.66,2,2,0,0,0-.07-1l.5-.31,3.4,5.57-.5.31a2,2,0,0,0-.89-.54,1.28,1.28,0,0,0-.86.22L206,68.42l3.12,5.11,8.74-5.33a1.28,1.28,0,0,0,.59-.67,2,2,0,0,0-.07-1l.5-.31,3.32,5.43-.5.31a2,2,0,0,0-.89-.53,1.23,1.23,0,0,0-.86.22Z" transform="translate(-5.76 -12.37)"/><path class="cls-1" d="M244.5,69.51l-6.11-20.44a1.31,1.31,0,0,0-.49-.76,2,2,0,0,0-1-.19l-.17-.57,13.48-4a18.82,18.82,0,0,1,7.1-1,10.11,10.11,0,0,1,6.48,3.35,14.62,14.62,0,0,1,3.15,5.83q1.88,6.24-1,10.67a10,10,0,0,1-3.18,3.09,21.76,21.76,0,0,1-5.33,2.24l-13.48,4-.17-.57a1.86,1.86,0,0,0,.75-.72A1.28,1.28,0,0,0,244.5,69.51Zm4.64-3.7,6.63-2a10.64,10.64,0,0,0,4.5-2.29q2.87-2.88,1.26-8.26a9,9,0,0,0-3.62-5.41,6.07,6.07,0,0,0-3-.9,13.17,13.17,0,0,0-4,.67l-6.63,2Z" transform="translate(-5.76 -12.37)"/><path class="cls-1" d="M279.2,51.72l.66,6.88L296,57.05a1.3,1.3,0,0,0,.83-.34,1.92,1.92,0,0,0,.39-1l.58-.05.63,6.49-.59,0a1.92,1.92,0,0,0-.57-.87,1.29,1.29,0,0,0-.87-.18l-22.8,2.19-.05-.59a1.84,1.84,0,0,0,.87-.56,1.28,1.28,0,0,0,.17-.89l-2-21.24a1.26,1.26,0,0,0-.34-.84,1.88,1.88,0,0,0-1-.39l-.06-.59,22.36-2.14a1.23,1.23,0,0,0,.82-.35,1.88,1.88,0,0,0,.39-1l.59,0,.62,6.49-.58.05a2,2,0,0,0-.57-.87,1.24,1.24,0,0,0-.87-.17l-15.7,1.5.57,6,10.18-1a1.25,1.25,0,0,0,.83-.34,2,2,0,0,0,.39-1l.58-.06.61,6.34-.59.06a1.91,1.91,0,0,0-.56-.86,1.23,1.23,0,0,0-.87-.19Z" transform="translate(-5.76 -12.37)"/><path class="cls-1" d="M308.47,57.52l15.45,1.24a1.25,1.25,0,0,0,.88-.19,1.93,1.93,0,0,0,.56-.88l.59.05-.53,6.5-.59,0a1.87,1.87,0,0,0-.4-1,1.28,1.28,0,0,0-.85-.33l-22.11-1.78,0-.59a2,2,0,0,0,1-.4,1.35,1.35,0,0,0,.32-.85L304.52,38a1.33,1.33,0,0,0-.19-.89,1.93,1.93,0,0,0-.88-.55l0-.59,7.85.63,0,.59a1.79,1.79,0,0,0-1,.39,1.33,1.33,0,0,0-.33.86Z" transform="translate(-5.76 -12.37)"/><path class="cls-1" d="M329.41,62.33l4.42-20.89a1.23,1.23,0,0,0-.08-.89,1.85,1.85,0,0,0-.8-.66l.12-.58,7.7,1.63-.12.58a1.79,1.79,0,0,0-1,.27,1.29,1.29,0,0,0-.44.79l-4.42,20.89a1.24,1.24,0,0,0,.09.91,1.73,1.73,0,0,0,.79.65l-.12.58L327.85,64l.12-.58a1.9,1.9,0,0,0,1-.28A1.26,1.26,0,0,0,329.41,62.33Z" transform="translate(-5.76 -12.37)"/><path class="cls-1" d="M354.32,63.66,365.65,52a3.87,3.87,0,0,0,.89-1.23c.18-.5-.08-1-.79-1.39l.2-.55,8.12,2.93-.2.56a1.79,1.79,0,0,0-1.22,0,10.78,10.78,0,0,0-1.72,1.54L356.29,68.69A5,5,0,0,0,355.24,70c-.21.59,0,1.06.72,1.43l-.2.56-8.17-3,.2-.56c.76.16,1.26-.06,1.48-.67a5.13,5.13,0,0,0,0-1.64l-1.8-20.71a10.87,10.87,0,0,0-.34-2.28,1.75,1.75,0,0,0-.9-.82l.2-.56,8.43,3-.21.56c-.81-.13-1.31.06-1.49.55a3.92,3.92,0,0,0-.1,1.52Z" transform="translate(-5.76 -12.37)"/><path class="cls-1" d="M378.5,70.44,375,76.38l13.93,8.3a1.23,1.23,0,0,0,.86.21,1.86,1.86,0,0,0,.89-.54l.51.3-3.34,5.6-.51-.3a1.92,1.92,0,0,0,.06-1,1.25,1.25,0,0,0-.6-.66L367.1,76.53l.3-.51a1.91,1.91,0,0,0,1,.06,1.32,1.32,0,0,0,.67-.61L380,57.14a1.31,1.31,0,0,0,.23-.88,1.94,1.94,0,0,0-.55-.89l.3-.5,19.3,11.49a1.22,1.22,0,0,0,.86.21,1.94,1.94,0,0,0,.89-.54l.5.3-3.34,5.6-.5-.3a1.88,1.88,0,0,0,.06-1,1.18,1.18,0,0,0-.6-.66l-13.55-8.08L380.55,67l8.8,5.24a1.21,1.21,0,0,0,.86.21,1.87,1.87,0,0,0,.88-.55l.51.31-3.26,5.47-.51-.3a2,2,0,0,0,.06-1,1.23,1.23,0,0,0-.6-.67Z" transform="translate(-5.76 -12.37)"/><path class="cls-1" d="M402.79,87.82l-5.57,6.25a1.27,1.27,0,0,0-.37.82,1.79,1.79,0,0,0,.37,1l-.39.44L391,91.06l.39-.45a1.88,1.88,0,0,0,1,.26,1.25,1.25,0,0,0,.76-.46l14.2-16a1.3,1.3,0,0,0,.38-.82,1.91,1.91,0,0,0-.37-1l.39-.44L419.5,82.71A24.6,24.6,0,0,1,422.69,86a8,8,0,0,1,1.43,2.83,5.86,5.86,0,0,1-.1,3.39,8.65,8.65,0,0,1-1.75,3q-4.11,4.62-9.92.84l-1,8.46a16.69,16.69,0,0,0-.15,3,2.42,2.42,0,0,0,.71,1.41l-.39.44-6.81-6.06.39-.44c.54.34.92.39,1.15.13a4.59,4.59,0,0,0,.42-1.78l1.12-8.94Zm2.76-3.11,6.35,5.65A21,21,0,0,0,414,92.05a4.07,4.07,0,0,0,1.37.6A3.37,3.37,0,0,0,419,88.56a4.05,4.05,0,0,0-.74-1.29,23.49,23.49,0,0,0-1.93-1.85L410,79.77Z" transform="translate(-5.76 -12.37)"/><path class="cls-1" d="M419.37,110.77a2.9,2.9,0,0,1,.73,2.22,3,3,0,0,1-1.07,2.07,2.88,2.88,0,0,1-2.2.7,3,3,0,0,1-2.77-3.26,3,3,0,0,1,1.06-2.07,2.87,2.87,0,0,1,2.17-.71A3,3,0,0,1,419.37,110.77Z" transform="translate(-5.76 -12.37)"/><path class="cls-2" d="M115.37,163.62c21.7-81.8,96.36-142.27,184.89-142.27s163.2,60.47,184.89,142.27h9.28C472.52,76.82,393.78,12.37,300.26,12.37S128,76.82,106.09,163.62Z" transform="translate(-5.76 -12.37)"/><path class="cls-2" d="M300.26,351.87a139.48,139.48,0,0,0,128.23-85H419.2a130.73,130.73,0,0,1-237.87,0H172A139.48,139.48,0,0,0,300.26,351.87Z" transform="translate(-5.76 -12.37)"/><path class="cls-2" d="M483.66,266.91c-23.46,79.09-96.79,137-183.4,137s-159.94-57.87-183.4-137H107.5c23.73,84.12,101.16,146,192.76,146S469.3,351,493,266.91Z" transform="translate(-5.76 -12.37)"/><path class="cls-2" d="M300.26,73.37a139.46,139.46,0,0,0-130.34,90.25H179a130.74,130.74,0,0,1,242.44,0h9.13A139.48,139.48,0,0,0,300.26,73.37Z" transform="translate(-5.76 -12.37)"/></svg>